<?xml version="1.0" encoding="utf-8"?><svg version="1.1" id="Layer_1" xmlns="http://www.w3.org/2000/svg" xmlns:xlink="http://www.w3.org/1999/xlink" x="0px" y="0px" viewBox="0 0 326.04 85.08" style="enable-background:new 0 0 326.04 85.08;" xml:space="preserve"><style type="text/css">.st0{fill:#00A44B;} .st1{fill:#FFFFFF;} .st2{fill:#576F7F;}</style><path class="st0" d="M102.44,70.68H68.16c-14.15,0-25.72-11.57-25.72-25.72v0c0-14.15,11.57-25.72,25.72-25.72h34.28 c14.15,0,25.72,11.57,25.72,25.72v0C128.16,59.1,116.59,70.68,102.44,70.68z"/><circle class="st1" cx="101.47" cy="44.96" r="18.14"/><path class="st2" d="M8.54,53.6V32.62H0V18.03h8.54V4.96h18.12v13.07h8.37v14.59h-8.37v17.46c0,3.62,1.62,5.15,4.96,5.15 c2.38,0,4.67-0.67,6.87-1.72v14.21c-3.24,1.81-7.54,2.96-12.59,2.96C15.02,70.68,8.54,65.91,8.54,53.6z"/><path class="st2" d="M138.67,81.45V67.69c5.53,3.05,11.77,4.32,18.73,4.32c9.06,0,13.54-4.48,13.54-12.69v-2 c-3.62,4.2-8.39,7.73-15.93,7.73c-12.69,0-22.89-9.16-22.89-23.94v-0.19c0-14.88,10.4-24.04,22.32-24.04 c7.73,0,12.3,3.15,16.21,7.25v-6.1h18.12v39.2c0,9.44-2.1,16.02-6.68,20.6c-4.67,4.67-11.92,7.25-22.7,7.25 C149.4,85.08,144.95,83.98,138.67,81.45z M170.95,41.11v-0.19c0-5.72-4.39-9.92-10.49-9.92c-6.2,0-10.59,4.29-10.59,10.02v0.19 c0,5.72,4.39,9.92,10.59,9.92C166.56,51.12,170.95,46.83,170.95,41.11z"/><path class="st2" d="M263.38,0h18.12v69.63h-18.12V0z"/><path class="st2" d="M291.61,18.03h18.12v10.4c2.96-7.06,7.73-11.64,16.31-11.25v19.08h-1.53c-9.44,0-14.78,5.44-14.78,17.36 v16.02h-18.12V18.03z"/><path class="st2" d="M203.15,81.45V67.69c5.53,3.05,11.77,4.32,18.73,4.32c9.06,0,13.54-4.48,13.54-12.69v-2 c-3.62,4.2-8.39,7.73-15.93,7.73c-12.69,0-22.89-9.16-22.89-23.94v-0.19c0-14.88,10.4-24.04,22.32-24.04 c7.73,0,12.3,3.15,16.21,7.25v-6.1h18.12v39.2c0,9.44-2.1,16.02-6.68,20.6c-4.67,4.67-11.92,7.25-22.7,7.25 C213.87,85.08,209.43,83.98,203.15,81.45z M235.43,41.11v-0.19c0-5.72-4.39-9.92-10.49-9.92c-6.2,0-10.59,4.29-10.59,10.02v0.19 c0,5.72,4.39,9.92,10.59,9.92C231.04,51.12,235.43,46.83,235.43,41.11z"/></svg>
