<?xml version="1.0" encoding="utf-8"?>
<!-- Generator: Adobe Illustrator 23.0.3, SVG Export Plug-In . SVG Version: 6.00 Build 0)  -->
<svg version="1.1" id="Layer_1" xmlns="http://www.w3.org/2000/svg" xmlns:xlink="http://www.w3.org/1999/xlink" x="0px" y="0px"
	 viewBox="0 0 267.95 95.98" style="enable-background:new 0 0 267.95 95.98;" xml:space="preserve">
<style type="text/css">
	.st0{fill:#FFFFFF;}
	.st1{fill:#ED3326;}
</style>
<g>
	<g>
		<path class="st0" d="M84.19,15.81H56.02c-11.63,0-21.14,9.51-21.14,21.14v0c0,11.63,9.51,21.14,21.14,21.14h28.17
			c11.63,0,21.14-9.51,21.14-21.14v0C105.33,25.32,95.82,15.81,84.19,15.81z M83.39,51.85c-8.23,0-14.9-6.67-14.9-14.9
			s6.67-14.9,14.9-14.9s14.9,6.67,14.9,14.9S91.63,51.85,83.39,51.85z"/>
		<g>
			<path class="st0" d="M7.02,44.05V26.81H0V14.82h7.02V4.08h14.89v10.74h6.88v11.99h-6.88v14.34c0,2.98,1.33,4.23,4.08,4.23
				c1.96,0,3.84-0.55,5.64-1.41v11.68c-2.67,1.49-6.19,2.43-10.35,2.43C12.35,58.08,7.02,54.16,7.02,44.05z"/>
			<path class="st0" d="M113.97,66.94V55.63c4.55,2.51,9.67,3.55,15.4,3.55c7.45,0,11.13-3.68,11.13-10.43v-1.65
				c-2.98,3.45-6.9,6.35-13.09,6.35c-10.43,0-18.81-7.52-18.81-19.67v-0.16c0-12.23,8.54-19.75,18.34-19.75
				c6.35,0,10.11,2.59,13.33,5.96v-5.02h14.89v32.22c0,7.76-1.72,13.17-5.49,16.93c-3.84,3.84-9.8,5.96-18.66,5.96
				C122.78,69.92,119.12,69.01,113.97,66.94z M140.49,33.78v-0.16c0-4.7-3.61-8.15-8.62-8.15c-5.1,0-8.7,3.53-8.7,8.23v0.16
				c0,4.7,3.61,8.15,8.7,8.15C136.89,42.01,140.49,38.49,140.49,33.78z"/>
			<path class="st0" d="M216.45,0h14.89v57.22h-14.89V0z"/>
			<path class="st0" d="M239.65,14.82h14.89v8.54c2.43-5.8,6.35-9.56,13.4-9.25v15.68h-1.25c-7.76,0-12.15,4.47-12.15,14.27v13.17
				h-14.89V14.82z"/>
			<path class="st0" d="M166.96,66.94V55.63c4.55,2.51,9.67,3.55,15.4,3.55c7.45,0,11.13-3.68,11.13-10.43v-1.65
				c-2.98,3.45-6.9,6.35-13.09,6.35c-10.43,0-18.81-7.52-18.81-19.67v-0.16c0-12.23,8.54-19.75,18.34-19.75
				c6.35,0,10.11,2.59,13.33,5.96v-5.02h14.89v32.22c0,7.76-1.72,13.17-5.49,16.93c-3.84,3.84-9.8,5.96-18.66,5.96
				C175.77,69.92,172.11,69.01,166.96,66.94z M193.48,33.78v-0.16c0-4.7-3.61-8.15-8.62-8.15c-5.1,0-8.7,3.53-8.7,8.23v0.16
				c0,4.7,3.61,8.15,8.7,8.15C189.88,42.01,193.48,38.49,193.48,33.78z"/>
		</g>
	</g>
	<g>
		<path class="st0" d="M173.78,82.17c0.48,0.28,0.87,0.67,1.15,1.19c0.28,0.52,0.43,1.11,0.43,1.79c0,0.68-0.14,1.28-0.43,1.8
			c-0.28,0.52-0.67,0.92-1.15,1.19c-0.48,0.28-1.01,0.41-1.59,0.41c-0.81,0-1.41-0.22-1.8-0.66v0.54h-2.58v-8.9h2.71v2.78
			c0.38-0.38,0.94-0.56,1.67-0.56C172.76,81.76,173.29,81.89,173.78,82.17z M172.31,86.11c0.2-0.23,0.3-0.55,0.3-0.95
			c0-0.41-0.1-0.72-0.3-0.95c-0.2-0.22-0.46-0.34-0.77-0.34c-0.31,0-0.57,0.11-0.77,0.34c-0.2,0.22-0.3,0.54-0.3,0.95
			c0,0.41,0.1,0.73,0.3,0.95c0.2,0.23,0.46,0.34,0.77,0.34C171.85,86.45,172.11,86.33,172.31,86.11z"/>
		<path class="st0" d="M183.33,81.88l-2.7,6.7c-0.34,0.86-0.77,1.46-1.28,1.8c-0.51,0.34-1.14,0.52-1.88,0.52
			c-0.37,0-0.74-0.05-1.11-0.16c-0.37-0.11-0.67-0.25-0.88-0.43l0.9-1.86c0.14,0.1,0.29,0.19,0.46,0.25c0.17,0.06,0.34,0.1,0.5,0.1
			c0.3,0,0.52-0.09,0.67-0.26l-2.76-6.65h2.78l1.36,3.52l1.38-3.52H183.33z"/>
	</g>
	<g>
		<path class="st1" d="M246.09,72.77l-46.35,0c-6.04,0-11.34,4.49-11.87,10.51c-0.61,6.87,4.78,12.64,11.52,12.64l46.37,0
			c5.73,0,10.86-4.03,11.75-9.69C258.66,79,253.1,72.77,246.09,72.77z"/>
		<path class="st0" d="M246.09,94.58l-46.43,0c-5.05,0-9.56-3.54-10.37-8.52c-1.05-6.41,3.88-11.96,10.1-11.96l46.39,0
			c5.35,0,10.04,3.97,10.51,9.3C256.83,89.48,252.05,94.58,246.09,94.58z"/>
		<path class="st1" d="M199.39,93.95c-5.77,0-10.34-5.1-9.49-11.03c0.68-4.76,4.98-8.16,9.78-8.16h46.12c4.81,0,9.1,3.41,9.78,8.16
			c0.85,5.93-3.73,11.03-9.49,11.03H199.39z"/>
		<polygon class="st0" points="229.81,81.92 229.81,79.15 217.12,79.15 217.63,89.44 229.37,89.44 229.37,87.47 222.02,87.47 
			222.02,85.74 227.44,85.74 227.44,83.77 222.02,83.77 222.02,81.92 		"/>
		<rect x="231.63" y="83.77" class="st0" width="2.87" height="1.97"/>
		<rect x="212.28" y="83.77" class="st0" width="2.87" height="1.97"/>
		<polygon class="st0" points="202.45,85.74 205.78,85.74 205.78,85.74 205.88,89.44 210.13,89.44 210.63,79.15 205.59,79.15 
			205.73,83.77 202.5,83.77 202.63,79.15 197.6,79.15 198.1,89.44 202.35,89.44 202.45,85.74 		"/>
		<path class="st0" d="M247.4,84.76c1.38-0.36,2.36-1.73,2.08-3.28c-0.25-1.38-1.54-2.32-2.94-2.32h-10.05l0.5,10.29l4.25-0.01h5.19
			c1.1,0,2.14-0.69,2.42-1.76C249.18,86.37,248.49,85.19,247.4,84.76z"/>
		<path class="st1" d="M243.29,87.72h-2.01l0.05-2.11h1.88c0.59,0,1.06,0.47,1.06,1.05C244.27,87.23,243.84,87.69,243.29,87.72z"/>
		<path class="st1" d="M243.4,83.93h-2.01l0.07-2.37h1.94c0.66,0,1.19,0.52,1.19,1.19C244.58,83.39,244.05,83.93,243.4,83.93z"/>
		<path class="st1" d="M256.21,94.84c0-0.53,0.4-0.94,0.92-0.94c0.52,0,0.92,0.41,0.92,0.94c0,0.54-0.4,0.95-0.92,0.95
			C256.61,95.79,256.21,95.38,256.21,94.84z M257.12,95.98c0.62,0,1.14-0.48,1.14-1.14c0-0.65-0.52-1.13-1.14-1.13
			c-0.62,0-1.15,0.48-1.15,1.13C255.98,95.51,256.5,95.98,257.12,95.98z M256.89,94.93h0.23l0.34,0.58h0.22l-0.37-0.58
			c0.19-0.02,0.33-0.13,0.33-0.36c0-0.24-0.15-0.37-0.46-0.37h-0.5v1.32h0.2V94.93z M256.89,94.77v-0.41h0.27
			c0.14,0,0.29,0.04,0.29,0.19c0,0.2-0.15,0.22-0.32,0.22H256.89z"/>
	</g>
</g>
</svg>
